<svg width="100" height="106" viewBox="0 0 100 106" fill="none" xmlns="http://www.w3.org/2000/svg">
<mask id="path-1-inside-1" fill="white">
<path d="M16 70.0369C16 86.4491 31.4463 99.7536 50.5 99.7536C69.5537 99.7536 85 86.4491 85 70.0369C85 53.5277 75.4167 40.3203 81.8465 28.7639C81.8465 28.7639 70.5832 29.4174 64.8334 42.6247C64.8334 42.6247 46.6667 27.1129 54.6746 4C54.6746 4 39.7109 13.3597 38.2109 33.3084C37.4649 47.3307 32.5859 51.1998 32.5859 51.1998C32.5859 36.3416 21.6803 32.0657 21.6803 32.0657C25.5833 50.2259 16 55.1787 16 70.0369Z"/>
</mask>
<path d="M16 70.0369C16 86.4491 31.4463 99.7536 50.5 99.7536C69.5537 99.7536 85 86.4491 85 70.0369C85 53.5277 75.4167 40.3203 81.8465 28.7639C81.8465 28.7639 70.5832 29.4174 64.8334 42.6247C64.8334 42.6247 46.6667 27.1129 54.6746 4C54.6746 4 39.7109 13.3597 38.2109 33.3084C37.4649 47.3307 32.5859 51.1998 32.5859 51.1998C32.5859 36.3416 21.6803 32.0657 21.6803 32.0657C25.5833 50.2259 16 55.1787 16 70.0369Z" fill="#F4003B" stroke="black" stroke-width="6" mask="url(#path-1-inside-1)"/>
<mask id="path-2-inside-2" fill="white">
<path d="M41.274 71.2588C50.9651 63.9034 52.7739 54.0712 51.4506 52.5292C50.1273 50.9872 81.0001 81.0877 66.6249 94.713C60.7956 100.238 46.3889 102.438 38.4993 97.5C30.8798 92.7309 30.8983 79.1338 41.274 71.2588Z"/>
</mask>
<path d="M41.274 71.2588C50.9651 63.9034 52.7739 54.0712 51.4506 52.5292C50.1273 50.9872 81.0001 81.0877 66.6249 94.713C60.7956 100.238 46.3889 102.438 38.4993 97.5C30.8798 92.7309 30.8983 79.1338 41.274 71.2588Z" fill="white" stroke="black" stroke-width="6" mask="url(#path-2-inside-2)"/>
</svg>
