<svg width="117" height="106" fill="none" xmlns="http://www.w3.org/2000/svg"><mask id="a" fill="#fff"><path d="M98.8846 53.8827c0 22.1006-17.916 40.0166-40.0165 40.0166s-40.0165-17.916-40.0165-40.0166c0-22.1005 17.916-40.0165 40.0165-40.0165s40.0165 17.916 40.0165 40.0165z"/></mask><path d="M98.8846 53.8827c0 22.1006-17.916 40.0166-40.0165 40.0166s-40.0165-17.916-40.0165-40.0166c0-22.1005 17.916-40.0165 40.0165-40.0165s40.0165 17.916 40.0165 40.0165z" fill="#fff" stroke="#000" stroke-width="6" mask="url(#a)"/><ellipse cx="67.3516" cy="67.9912" rx="12" ry="12.5" fill="#F4003B" stroke="#000" stroke-width="3"/><path d="M22.2915 42.0525C6.47636 48.3663 5.74581 58.4772 7.4242 64.7416c3.3591 12.5364 28.7864 16.6157 56.7933 9.1112 28.007-7.5044 47.9885-23.7508 44.6285-36.2872-1.845-7.8887-11.3544-13.2237-23.2932-12.4866" stroke="#000" stroke-width="3"/><circle cx="69.8516" cy="32.8662" r="5.5" fill="#F4003B" stroke="#000" stroke-width="3"/><path d="M46.8432 47.6232c0 4.4969-3.6455 8.1423-8.1423 8.1423-4.4969 0-8.1423-3.6454-8.1423-8.1423 0-4.4968 3.6454-8.1422 8.1423-8.1422 4.4968 0 8.1423 3.6454 8.1423 8.1422z" fill="#F4003B" stroke="#000" stroke-width="3"/></svg>