<svg width="117" height="106" viewBox="0 0 117 106" fill="none" xmlns="http://www.w3.org/2000/svg">
<mask id="path-1-inside-1" fill="white">
<path d="M98.3846 53.8827C98.3846 75.9833 80.4686 93.8993 58.3681 93.8993C36.2676 93.8993 18.3516 75.9833 18.3516 53.8827C18.3516 31.7822 36.2676 13.8662 58.3681 13.8662C80.4686 13.8662 98.3846 31.7822 98.3846 53.8827Z"/>
</mask>
<path d="M98.3846 53.8827C98.3846 75.9833 80.4686 93.8993 58.3681 93.8993C36.2676 93.8993 18.3516 75.9833 18.3516 53.8827C18.3516 31.7822 36.2676 13.8662 58.3681 13.8662C80.4686 13.8662 98.3846 31.7822 98.3846 53.8827Z" fill="white" stroke="black" stroke-width="6" mask="url(#path-1-inside-1)"/>
<path d="M83.8516 66.2021C83.8516 71.1703 79.9853 75.1978 75.2159 75.1978C70.4464 75.1978 66.5801 71.1703 66.5801 66.2021C66.5801 61.234 70.4464 57.2065 75.2159 57.2065C79.9853 57.2065 83.8516 61.234 83.8516 66.2021Z" fill="#F4003B" stroke="black" stroke-width="3"/>
<path d="M21.7915 42.0525C5.97636 48.3663 5.24581 58.4772 6.9242 64.7416C10.2833 77.278 35.7106 81.3573 63.7175 73.8528C91.7245 66.3484 111.706 50.102 108.346 37.5656C106.501 29.6769 96.9916 24.3419 85.0528 25.079" stroke="black" stroke-width="3"/>
<circle cx="60.1641" cy="36.874" r="11.1641" fill="#F4003B" stroke="black" stroke-width="3"/>
<path d="M42.3866 63.2456C42.3866 66.5808 39.6829 69.2846 36.3476 69.2846C33.0124 69.2846 30.3086 66.5808 30.3086 63.2456C30.3086 59.9103 33.0124 57.2065 36.3476 57.2065C39.6829 57.2065 42.3866 59.9103 42.3866 63.2456Z" fill="#F4003B" stroke="black" stroke-width="3"/>
</svg>
