<svg width="100" height="106" viewBox="0 0 100 106" fill="none" xmlns="http://www.w3.org/2000/svg">
<mask id="path-1-inside-1" fill="white">
<path d="M16 70.994C16 87.644 31.6701 101.141 51 101.141C70.3299 101.141 86 87.644 86 70.994C86 54.2455 76.2778 40.8467 82.8008 29.1228C82.8008 29.1228 71.3742 29.7858 65.5411 43.1844C65.5411 43.1844 47.1112 27.4478 55.2351 4C55.2351 4 40.0546 13.4954 38.5328 33.7331C37.776 47.9587 32.8263 51.8839 32.8263 51.8839C32.8263 36.8103 21.7627 32.4724 21.7627 32.4724C25.7222 50.8958 16 55.9204 16 70.994Z"/>
</mask>
<path d="M16 70.994C16 87.644 31.6701 101.141 51 101.141C70.3299 101.141 86 87.644 86 70.994C86 54.2455 76.2778 40.8467 82.8008 29.1228C82.8008 29.1228 71.3742 29.7858 65.5411 43.1844C65.5411 43.1844 47.1112 27.4478 55.2351 4C55.2351 4 40.0546 13.4954 38.5328 33.7331C37.776 47.9587 32.8263 51.8839 32.8263 51.8839C32.8263 36.8103 21.7627 32.4724 21.7627 32.4724C25.7222 50.8958 16 55.9204 16 70.994Z" fill="#F4003B" stroke="black" stroke-width="6" mask="url(#path-1-inside-1)"/>
<mask id="path-2-inside-2" fill="white">
<path d="M41.6405 72.2337C51.4721 64.7717 53.3071 54.7971 51.9646 53.2327C50.6222 51.6684 81.9424 82.2051 67.3588 96.0279C61.4451 101.633 46.8296 103.865 38.8256 98.8552C31.0957 94.017 31.1145 80.2228 41.6405 72.2337Z"/>
</mask>
<path d="M41.6405 72.2337C51.4721 64.7717 53.3071 54.7971 51.9646 53.2327C50.6222 51.6684 81.9424 82.2051 67.3588 96.0279C61.4451 101.633 46.8296 103.865 38.8256 98.8552C31.0957 94.017 31.1145 80.2228 41.6405 72.2337Z" fill="white" stroke="black" stroke-width="6" mask="url(#path-2-inside-2)"/>
</svg>
