<svg width="100" height="106" fill="none" xmlns="http://www.w3.org/2000/svg"><mask id="a" fill="#fff"><path d="M16 70.994c0 16.65 15.6701 30.147 35 30.147 19.3299 0 35-13.497 35-30.147 0-16.7485-9.7222-30.1473-3.1992-41.8712 0 0-11.4266.663-17.2597 14.0616 0 0-18.4299-15.7366-10.306-39.1844 0 0-15.1805 9.4954-16.7023 29.7331-.7568 14.2256-5.7065 18.1508-5.7065 18.1508 0-15.0736-11.0636-19.4115-11.0636-19.4115C25.7222 50.8958 16 55.9204 16 70.994z"/></mask><path d="M16 70.994c0 16.65 15.6701 30.147 35 30.147 19.3299 0 35-13.497 35-30.147 0-16.7485-9.7222-30.1473-3.1992-41.8712 0 0-11.4266.663-17.2597 14.0616 0 0-18.4299-15.7366-10.306-39.1844 0 0-15.1805 9.4954-16.7023 29.7331-.7568 14.2256-5.7065 18.1508-5.7065 18.1508 0-15.0736-11.0636-19.4115-11.0636-19.4115C25.7222 50.8958 16 55.9204 16 70.994z" fill="#F4003B" stroke="#000" stroke-width="6" mask="url(#a)"/><mask id="b" fill="#fff"><path d="M41.6405 72.2337c9.8316-7.462 11.6666-17.4366 10.3241-19.001-1.3424-1.5643 29.9778 28.9724 15.3942 42.7952-5.9137 5.6051-20.5292 7.8371-28.5332 2.8273-7.7299-4.8382-7.7111-18.6324 2.8149-26.6215z"/></mask><path d="M41.6405 72.2337c9.8316-7.462 11.6666-17.4366 10.3241-19.001-1.3424-1.5643 29.9778 28.9724 15.3942 42.7952-5.9137 5.6051-20.5292 7.8371-28.5332 2.8273-7.7299-4.8382-7.7111-18.6324 2.8149-26.6215z" fill="#fff" stroke="#000" stroke-width="6" mask="url(#b)"/></svg>