<svg width="101" height="106" viewBox="0 0 101 106" fill="none" xmlns="http://www.w3.org/2000/svg">
<mask id="path-1-outside-1" maskUnits="userSpaceOnUse" x="13.5" y="4.25" width="76" height="100" fill="black">
<rect fill="white" x="13.5" y="4.25" width="76" height="100"/>
<path d="M16.5 70.994C16.5 87.644 32.1701 101.141 51.5 101.141C70.8299 101.141 86.5 87.644 86.5 70.994C86.5 54.2455 76.7778 40.8467 83.3008 29.1228C83.3008 29.1228 71.3331 28.3513 65.5 41.75C65.5 41.75 55 29.1228 56.75 7.25C56.75 7.25 40.6713 12.4825 39.5 34.5C38.7432 48.7255 33.75 49.5 33.75 49.5C32.25 37.25 22.2627 32.4724 22.2627 32.4724C26.2222 50.8958 16.5 55.9204 16.5 70.994Z"/>
</mask>
<path d="M16.5 70.994C16.5 87.644 32.1701 101.141 51.5 101.141C70.8299 101.141 86.5 87.644 86.5 70.994C86.5 54.2455 76.7778 40.8467 83.3008 29.1228C83.3008 29.1228 71.3331 28.3513 65.5 41.75C65.5 41.75 55 29.1228 56.75 7.25C56.75 7.25 40.6713 12.4825 39.5 34.5C38.7432 48.7255 33.75 49.5 33.75 49.5C32.25 37.25 22.2627 32.4724 22.2627 32.4724C26.2222 50.8958 16.5 55.9204 16.5 70.994Z" fill="#F4003B"/>
<path d="M16.5 70.994C16.5 87.644 32.1701 101.141 51.5 101.141C70.8299 101.141 86.5 87.644 86.5 70.994C86.5 54.2455 76.7778 40.8467 83.3008 29.1228C83.3008 29.1228 71.3331 28.3513 65.5 41.75C65.5 41.75 55 29.1228 56.75 7.25C56.75 7.25 40.6713 12.4825 39.5 34.5C38.7432 48.7255 33.75 49.5 33.75 49.5C32.25 37.25 22.2627 32.4724 22.2627 32.4724C26.2222 50.8958 16.5 55.9204 16.5 70.994Z" stroke="black" stroke-width="6" stroke-linejoin="round" mask="url(#path-1-outside-1)"/>
<path d="M42.1409 73.2339C51.3758 65.5001 52.8911 56.2759 52.465 54.2329C52.039 52.19 82.4428 83.2053 67.8592 97.0281C61.9455 102.633 46.8795 104.135 38.8755 99.125C31.1456 94.2868 32.0099 81.7183 42.1409 73.2339Z" fill="white" stroke="black" stroke-width="3" stroke-linejoin="round"/>
</svg>
