<svg width="100" height="100" fill="none" xmlns="http://www.w3.org/2000/svg"><path d="M55.9227 59.843c-9.1464 1.0296-17.8584 3.8207-25.8941 8.2956l-3.9398 2.1939c-3.031 1.6879-6.5379 2.0982-9.8771 1.1552a.91181.91181 0 00-.0104-.0029c-3.3514-.9464-6.1287-3.1415-7.81992-6.1809-3.46702-6.2308-1.12669-14.1741 5.21712-17.7067l3.7516-2.0892c8.0359-4.4749 14.9881-10.4068 20.6639-17.631l1.9628-2.4982c-.1751 5.5464 1.6651 12.4642 5.5015 19.3118 3.3354 5.9536 7.6809 10.9042 12.2367 13.9402.4623.3081.922.5929 1.3786.8552l-3.1709.357z" fill="#F4003B"/><path d="M55.9227 59.843c-9.1464 1.0296-17.8584 3.8207-25.8941 8.2956l-3.9398 2.1939c-3.031 1.6879-6.5379 2.0982-9.8771 1.1552a.91181.91181 0 00-.0104-.0029c-3.3514-.9464-6.1287-3.1415-7.81992-6.1809-3.46702-6.2308-1.12669-14.1741 5.21712-17.7067l3.7516-2.0892c8.0359-4.4749 14.9881-10.4068 20.6639-17.631l1.9628-2.4982c-.1751 5.5464 1.6651 12.4642 5.5015 19.3118 3.3354 5.9536 7.6809 10.9042 12.2367 13.9402.4623.3081.922.5929 1.3786.8552l-3.1709.357z" fill="#F4003B"/><path fill="#000" d="M71.7051 3.94818l2.41482 1.315728L67.182445 17.9966l-2.41482-1.315728zM95.3027 47.5207l-.711752 2.656296-14.005925-3.752876.711753-2.656296zM90.6777 21.7816l1.375 2.38157-12.557368 7.25-1.375-2.38157z"/><path fill-rule="evenodd" clip-rule="evenodd" d="M42.9705 17.6985c.5521-.5776 1.1791-1.0682 1.882-1.4608 6.7339-3.7613 17.4721 3.0737 24.4465 15.5606 6.9744 12.4866 7.291 25.4535.429 28.9753 0 0-.9133.525-1.8758.7541-.9183.2187-12.0879 1.4122-12.0879 1.4122-5.3684.6062-10.5749 1.8697-15.5643 3.7686l2.709 4.8501 1.0273 1.7792-2.592 1.4965 5.3077 9.5028c1.9766 3.5388.7057 8.0258-2.8331 10.0024-1.7694.9883-3.776 1.1647-5.5872.6517-1.8112-.5131-3.4272-1.7155-4.4155-3.4849l-5.2993-9.4878-1.1921.6882-1.1016-1.9081.0158-.0091-3.4618-6.198c-2.2223.3612-4.5148.2356-6.7447-.396l-.0124-.0035c-4.0239-1.1398-7.35861-3.7832-9.38955-7.4441-4.16304-7.5043-1.37226-17.0599 6.22125-21.3012l3.6455-2.0362c7.4614-4.1675 13.917-9.6921 19.1871-16.4204 0 0 6.9134-8.9016 7.2861-9.2916zm-6.5548 72.356l-5.3202-9.5249.0028-.0015 3.6174-2.0205 4.0168-2.2436 5.0688 9.0751c.5645.7387.8999 1.662.8999 2.6635 0 2.4249-1.9658 4.3906-4.3907 4.3906-1.5216 0-2.8624-.774-3.6502-1.9498a4.38434 4.38434 0 01-.2446-.3889zm-8.5235-17.2506c-.6965.389-1.4141.7207-2.1469.9962l2.6852 4.8076 10.2278-5.7125 1.2096-.6756-2.4465-4.38c-.4248.1848-.8468.3763-1.2681.5708-.2062.1071-.7404.3759-1.3725.6941l-.0023.0011-.0003.0002-.0005.0003c-1.1723.59-2.6798 1.3487-3.0572 1.5595l-3.8283 2.1383zm2.3765-4.7375c7.8082-4.3614 16.2737-7.0817 25.1613-8.0852l3.0812-.3479c-.4438-.2557-.8904-.5332-1.3396-.8336-4.4269-2.9589-8.6495-7.784-11.8905-13.5865-3.7278-6.6738-5.5159-13.4161-5.3457-18.8219l-1.9073 2.4349c-5.5152 7.0409-12.2707 12.8224-20.0791 17.1837l-3.6454 2.0362c-6.16432 3.443-8.43843 11.1847-5.06953 17.2575 1.64333 2.9623 4.34203 5.1017 7.59863 6.0241l.0101.0028c3.2447.9191 6.6524.5192 9.5976-1.1258l3.8283-2.1383zm20.1769-33.2559l-.0006-.0678-5.3692 2.9989c.754 2.0059 1.6935 4.0297 2.8049 6.0195 1.1112 1.9895 2.3416 3.8503 3.6535 5.5441l5.3654-2.9968c-1.6392-1.0289-3.249-2.7714-4.5256-5.0569-1.1691-2.0931-1.8529-4.3195-1.9254-6.2693-.0022-.0581-.0026-.1149-.003-.1717zm10.0695 9.4785l.0041-.0019c.9222-.5153 1.0289-3.6-.9122-7.0754-.9303-1.6653-2.1635-3.0882-3.3836-3.9037-.4376-.2925-.8582-.4958-1.2247-.5996-.3879-.1099-.7149-.1084-.9377.016-.4332.242-.6774 1.0647-.6372 2.1472.0545 1.4665.6193 3.2629 1.5494 4.9281 1.9388 3.4708 4.6162 4.9978 5.5419 4.4893zm6.4926 14.3715c.6478-.1505.8441-.2494 1.2681-.4862 5.1004-2.8489 4.3786-14.2628-1.5763-24.9246-4.317-7.7286-10.4128-13.3233-15.3828-14.7311-1.8861-.5342-3.6095-.4656-5.0126.3181-.4266.2383-.8361.595-1.167.9141-.3309.319-.6915.8828-.6915.8828-1.0932 1.6884-1.6348 4.1838-1.5219 7.2191.0822 2.2068.4932 4.577 1.1964 7.0123l8.4883-4.7411.0005.001c1.479-.8261 3.3506-.5747 5.269.7076 1.6222 1.0844 3.1592 2.8341 4.3284 4.9272 2.6685 4.7777 2.5675 9.561-.2352 11.1266l-.0057.0027-8.4831 4.7383c1.7048 1.8762 3.5077 3.4697 5.3439 4.697 2.5211 1.6852 4.9261 2.5324 6.9349 2.49 0 0 .5989-.0033 1.2466-.1538z" fill="#000"/></svg>