<svg width="101" height="101" viewBox="0 0 101 101" fill="none" xmlns="http://www.w3.org/2000/svg">
<mask id="path-1-inside-1" fill="white">
<path d="M58.8072 71.6137C61.8901 72.4613 68.8893 71.0487 67.4848 64.5386C66.0862 58.0285 59.932 58.3111 58.2537 49.535C56.5693 40.7588 49.442 41.3239 49.442 41.3239C49.442 41.3239 42.2971 40.7588 40.6128 49.535C38.9228 58.3111 32.7569 58.0286 31.3582 64.5386C29.9595 71.0486 36.9645 72.4672 40.0475 71.6137C43.1304 70.7662 49.4361 70.6249 49.4361 70.6249C49.4361 70.6249 55.7243 70.7661 58.8072 71.6137Z"/>
</mask>
<path d="M58.8072 71.6137C61.8901 72.4613 68.8893 71.0487 67.4848 64.5386C66.0862 58.0285 59.932 58.3111 58.2537 49.535C56.5693 40.7588 49.442 41.3239 49.442 41.3239C49.442 41.3239 42.2971 40.7588 40.6128 49.535C38.9228 58.3111 32.7569 58.0286 31.3582 64.5386C29.9595 71.0486 36.9645 72.4672 40.0475 71.6137C43.1304 70.7662 49.4361 70.6249 49.4361 70.6249C49.4361 70.6249 55.7243 70.7661 58.8072 71.6137Z" fill="#F4003B" stroke="black" stroke-width="6" mask="url(#path-1-inside-1)"/>
<path d="M74.1605 42.5137C74.1605 46.1722 71.8652 48.5137 69.7199 48.5137C67.5745 48.5137 65.2793 46.1722 65.2793 42.5137C65.2793 38.8551 67.5745 36.5137 69.7199 36.5137C71.8652 36.5137 74.1605 38.8551 74.1605 42.5137Z" fill="#F4003B" stroke="black" stroke-width="3"/>
<path d="M34.557 42.5137C34.557 46.1722 32.2617 48.5137 30.1164 48.5137C27.971 48.5137 25.6758 46.1722 25.6758 42.5137C25.6758 38.8551 27.971 36.5137 30.1164 36.5137C32.2617 36.5137 34.557 38.8551 34.557 42.5137Z" fill="#F4003B" stroke="black" stroke-width="3"/>
<path d="M46.4378 30.5137C46.4378 34.1722 44.1426 36.5137 41.9972 36.5137C39.8519 36.5137 37.5566 34.1722 37.5566 30.5137C37.5566 26.8551 39.8519 24.5137 41.9972 24.5137C44.1426 24.5137 46.4378 26.8551 46.4378 30.5137Z" fill="#F4003B" stroke="black" stroke-width="3"/>
<path d="M61.2894 30.5137C61.2894 34.1722 58.9941 36.5137 56.8488 36.5137C54.7035 36.5137 52.4082 34.1722 52.4082 30.5137C52.4082 26.8551 54.7035 24.5137 56.8488 24.5137C58.9941 24.5137 61.2894 26.8551 61.2894 30.5137Z" fill="#F4003B" stroke="black" stroke-width="3"/>
<path d="M13.1128 89.7636C10.5781 29.2636 28.1562 10.2638 50.1172 10.2637C72.0782 10.2638 89.6563 29.2636 87.1216 89.7636" stroke="black" stroke-width="3"/>
</svg>
