<svg width="100" height="100" fill="none" xmlns="http://www.w3.org/2000/svg"><path fill-rule="evenodd" clip-rule="evenodd" d="M19.8726 61.7521c9.7138 4.3516 23.3737-4.7609 29.0064-17.3345 5.6327-12.5736 7.7799-26.0369-1.9339-30.3885-9.7139-4.35162-24.9032 6.0428-30.5359 18.6164-5.6327 12.5736-6.2505 24.755 3.4634 29.1066zm11.4088-18.5413c3.0721 0 5.5625-2.6303 5.5625-5.875s-2.4904-5.875-5.5625-5.875-5.5625 2.6303-5.5625 5.875 2.4904 5.875 5.5625 5.875z" fill="#F4003B"/><mask id="a" fill="#fff"><path d="M25.8119 33.3356c2.5213-3.7918 7.006-5.21 10.0169-3.1677 3.011 2.0422 3.408 6.7717.8867 10.5635-2.5212 3.7918-7.006 5.21-10.0169 3.1677-3.0109-2.0423-3.4079-6.7717-.8867-10.5635z"/></mask><path d="M25.8119 33.3356c2.5213-3.7918 7.006-5.21 10.0169-3.1677 3.011 2.0422 3.408 6.7717.8867 10.5635-2.5212 3.7918-7.006 5.21-10.0169 3.1677-3.0109-2.0423-3.4079-6.7717-.8867-10.5635z" stroke="#000" stroke-width="6" mask="url(#a)"/><path d="M34.6156 15.9699c19.8019-7.49996 23.5976 13 12.8698 30.0002-11.6967 18.5355-34.157 22.4998-35.6433 4.5004" stroke="#000" stroke-width="3"/><path d="M87.0752 50.9699c0 21.001-16.8521 38-37.6089 38s-37.6089-16.999-37.6089-38c0-21.0009 16.8521-38 37.6089-38s37.6089 16.9991 37.6089 38z" stroke="#000" stroke-width="3"/><path d="M64.105 85.3441s-5.533-5.9592-1.1646-13.6846c4.3684-7.7253-5.0163-11.9924-5.0163-11.9924M35.9152 68.4699s-3.7185 16.8319 7.1145 19.9143M62.5336 72.8658c-1.6047.7178-2.7001 2.5731-9-2M36.3765 75.4204c2.9959-.6024 6.6809.9288 9.5637-11.9504M86.708 59.7919s-8.979.3489-9.3457-11.4654c-.3667-11.8142-12.0931-5.8008-12.0931-5.8008M70.7527 29.5605c1.4463 1.461 3.5824 1.781 3.0407 11.1824" stroke="#000" stroke-width="3"/></svg>