<svg width="30" height="31" viewBox="0 0 30 31" fill="none" xmlns="http://www.w3.org/2000/svg">
<path d="M14.9993 1.99292C9.63526 1.99292 5.29688 6.06414 5.29688 11.0979C5.29688 17.9266 14.9993 28.0071 14.9993 28.0071C14.9993 28.0071 24.7018 17.9266 24.7018 11.0979C24.7018 6.06414 20.3634 1.99292 14.9993 1.99292Z" fill="#F4003B"/>
<path d="M14.9993 28.0071L13.9186 29.0473L14.9993 30.1701L16.0801 29.0473L14.9993 28.0071ZM14.9993 0.49292C8.89808 0.49292 3.79688 5.14732 3.79688 11.0979H6.79688C6.79688 6.98095 10.3725 3.49292 14.9993 3.49292V0.49292ZM3.79688 11.0979C3.79688 13.1284 4.50821 15.275 5.45923 17.267C6.4206 19.2808 7.68747 21.2604 8.93022 22.9889C10.1763 24.722 11.419 26.2314 12.3488 27.3065C12.8144 27.8449 13.2034 28.2765 13.4775 28.575C13.6146 28.7243 13.723 28.8405 13.7981 28.9203C13.8357 28.9602 13.8649 28.991 13.8851 29.0123C13.8953 29.0229 13.9032 29.0312 13.9088 29.0371C13.9116 29.04 13.9138 29.0423 13.9155 29.044C13.9163 29.0449 13.917 29.0456 13.9175 29.0461C13.9177 29.0464 13.918 29.0467 13.9182 29.0468C13.9184 29.0471 13.9186 29.0473 14.9993 28.0071C16.0801 26.9669 16.0802 26.967 16.0803 26.9671C16.0803 26.9671 16.0804 26.9672 16.0803 26.9671C16.0803 26.9671 16.08 26.9668 16.0797 26.9665C16.079 26.9657 16.0777 26.9644 16.0758 26.9624C16.0721 26.9586 16.0661 26.9523 16.0579 26.9436C16.0414 26.9264 16.0162 26.8997 15.9826 26.8641C15.9156 26.7929 15.8156 26.6858 15.6874 26.5462C15.4309 26.2668 15.0618 25.8574 14.6179 25.3441C13.7285 24.3157 12.5456 22.8782 11.366 21.2376C10.1831 19.5924 9.02438 17.7715 8.16654 15.9746C7.29835 14.156 6.79688 12.4817 6.79688 11.0979H3.79688ZM14.9993 28.0071C16.0801 29.0473 16.0803 29.0471 16.0805 29.0468C16.0807 29.0467 16.0809 29.0464 16.0812 29.0461C16.0817 29.0456 16.0824 29.0449 16.0832 29.044C16.0849 29.0423 16.0871 29.04 16.0899 29.0371C16.0955 29.0312 16.1034 29.0229 16.1135 29.0123C16.1338 28.991 16.163 28.9602 16.2006 28.9203C16.2756 28.8405 16.3841 28.7243 16.5212 28.575C16.7953 28.2765 17.1843 27.8449 17.6499 27.3065C18.5797 26.2314 19.8224 24.722 21.0685 22.9889C22.3112 21.2604 23.5781 19.2808 24.5395 17.267C25.4905 15.275 26.2018 13.1284 26.2018 11.0979H23.2018C23.2018 12.4817 22.7003 14.156 21.8321 15.9746C20.9743 17.7715 19.8156 19.5924 18.6327 21.2376C17.4531 22.8782 16.2702 24.3157 15.3808 25.3441C14.9368 25.8574 14.5678 26.2668 14.3113 26.5462C14.1831 26.6858 14.0831 26.7929 14.016 26.8641C13.9825 26.8997 13.9573 26.9264 13.9408 26.9436C13.9326 26.9523 13.9266 26.9586 13.9229 26.9624C13.921 26.9644 13.9197 26.9657 13.919 26.9665C13.9186 26.9668 13.9184 26.9671 13.9184 26.9671C13.9183 26.9672 13.9184 26.9671 13.9184 26.9671C13.9185 26.967 13.9186 26.9669 14.9993 28.0071ZM26.2018 11.0979C26.2018 5.14732 21.1006 0.49292 14.9993 0.49292V3.49292C19.6262 3.49292 23.2018 6.98095 23.2018 11.0979H26.2018Z" fill="black"/>
<circle cx="15.0375" cy="11.744" r="3.23082" fill="black"/>
</svg>
