<svg width="31" height="30" viewBox="0 0 31 30" fill="none" xmlns="http://www.w3.org/2000/svg">
<path d="M15.4993 1.99292C10.1353 1.99292 5.79688 6.06414 5.79688 11.0979C5.79688 17.9266 15.4993 28.0071 15.4993 28.0071C15.4993 28.0071 25.2018 17.9266 25.2018 11.0979C25.2018 6.06414 20.8634 1.99292 15.4993 1.99292Z" fill="#F4003B"/>
<path d="M15.4993 28.0071L14.4186 29.0473C14.7014 29.3411 15.0916 29.5071 15.4993 29.5071C15.9071 29.5071 16.2973 29.3411 16.5801 29.0473L15.4993 28.0071ZM15.4993 0.49292C9.39808 0.49292 4.29688 5.14732 4.29688 11.0979H7.29688C7.29688 6.98095 10.8725 3.49292 15.4993 3.49292V0.49292ZM4.29688 11.0979C4.29688 13.1284 5.00821 15.275 5.95923 17.267C6.9206 19.2808 8.18747 21.2604 9.43022 22.9889C10.6763 24.722 11.919 26.2314 12.8488 27.3065C13.3144 27.8449 13.7034 28.2765 13.9775 28.575C14.1146 28.7243 14.223 28.8405 14.2981 28.9203C14.3357 28.9602 14.3649 28.991 14.3851 29.0123C14.3953 29.0229 14.4032 29.0312 14.4088 29.0371C14.4116 29.04 14.4138 29.0423 14.4155 29.044C14.4163 29.0449 14.417 29.0456 14.4175 29.0461C14.4177 29.0464 14.418 29.0467 14.4182 29.0468C14.4184 29.0471 14.4186 29.0473 15.4993 28.0071C16.5801 26.9669 16.5802 26.967 16.5803 26.9671C16.5803 26.9671 16.5804 26.9672 16.5803 26.9671C16.5803 26.9671 16.58 26.9668 16.5797 26.9665C16.579 26.9657 16.5777 26.9644 16.5758 26.9624C16.5721 26.9586 16.5661 26.9523 16.5579 26.9436C16.5414 26.9264 16.5162 26.8997 16.4826 26.8641C16.4156 26.7929 16.3156 26.6858 16.1874 26.5462C15.9309 26.2668 15.5618 25.8574 15.1179 25.3441C14.2285 24.3157 13.0456 22.8782 11.866 21.2376C10.6831 19.5924 9.52438 17.7715 8.66654 15.9746C7.79835 14.156 7.29688 12.4817 7.29688 11.0979H4.29688ZM15.4993 28.0071C16.5801 29.0473 16.5803 29.0471 16.5805 29.0468C16.5807 29.0467 16.5809 29.0464 16.5812 29.0461C16.5817 29.0456 16.5824 29.0449 16.5832 29.044C16.5849 29.0423 16.5871 29.04 16.5899 29.0371C16.5955 29.0312 16.6034 29.0229 16.6135 29.0123C16.6338 28.991 16.663 28.9602 16.7006 28.9203C16.7756 28.8405 16.8841 28.7243 17.0212 28.575C17.2953 28.2765 17.6843 27.8449 18.1499 27.3065C19.0797 26.2314 20.3224 24.722 21.5685 22.9889C22.8112 21.2604 24.0781 19.2808 25.0395 17.267C25.9905 15.275 26.7018 13.1284 26.7018 11.0979H23.7018C23.7018 12.4817 23.2003 14.156 22.3321 15.9746C21.4743 17.7715 20.3156 19.5924 19.1327 21.2376C17.9531 22.8782 16.7702 24.3157 15.8808 25.3441C15.4368 25.8574 15.0678 26.2668 14.8113 26.5462C14.6831 26.6858 14.5831 26.7929 14.516 26.8641C14.4825 26.8997 14.4573 26.9264 14.4408 26.9436C14.4326 26.9523 14.4266 26.9586 14.4229 26.9624C14.421 26.9644 14.4197 26.9657 14.419 26.9665C14.4186 26.9668 14.4184 26.9671 14.4184 26.9671C14.4183 26.9672 14.4184 26.9671 14.4184 26.9671C14.4185 26.967 14.4186 26.9669 15.4993 28.0071ZM26.7018 11.0979C26.7018 5.14732 21.6006 0.49292 15.4993 0.49292V3.49292C20.1262 3.49292 23.7018 6.98095 23.7018 11.0979H26.7018Z" fill="black"/>
<circle cx="15.5375" cy="11.744" r="3.23082" fill="black"/>
</svg>
