<svg width="637" height="124" viewBox="0 0 637 124" fill="none" xmlns="http://www.w3.org/2000/svg">
<path d="M207.187 55.9707H190.096L205.94 29.0645H185.979L167.266 69.4239H181.987L167.266 107.093L207.187 55.9707Z" fill="white"/>
<path d="M478.872 56.2836H461.392L477.596 29.0645H457.181L438.043 69.8932H453.099L438.043 108L478.872 56.2836Z" fill="white"/>
<path d="M77.393 56.8608C76.7605 56.5652 75.9593 56.4385 74.9473 56.4385C69.6341 56.4385 66.092 60.5349 66.092 67.3342C66.092 75.1048 69.7185 78.23 74.4413 78.23C75.4533 78.23 76.5497 78.1033 77.3509 77.7654V56.8608H77.393ZM58.5018 67.6721C58.5018 57.8321 64.827 50.146 75.2003 50.146C76.0858 50.146 76.5497 50.146 77.393 50.2304V39.2502C77.393 38.9968 77.6039 38.8279 77.8147 38.8279H84.6037C84.9411 38.8279 85.0254 38.9546 85.0254 39.1657V77.7654C85.0254 78.9057 85.0254 80.3416 85.2363 81.9041C85.2363 82.1998 85.2363 82.242 84.9832 82.3687C81.4412 84.0579 77.7304 84.8181 74.1883 84.8181C65.0379 84.8181 58.5018 79.1591 58.5018 67.6721V67.6721ZM44.1226 60.8306L55.9296 83.7623C56.1404 84.1002 56.0139 84.438 55.6766 84.438H48.3394C47.8755 84.438 47.6647 84.3113 47.4539 83.889C44.7551 78.3144 42.0142 72.5287 39.189 66.5318H39.1046C36.5746 72.1909 33.7915 78.3567 31.0927 83.9312C30.8819 84.2691 30.6711 84.3958 30.3337 84.3958H23.3339C22.9122 84.3958 22.87 84.0579 23.0808 83.8046L34.6348 61.5485L23.4604 39.4191C23.2073 39.0813 23.4604 38.7856 23.7555 38.7856H31.0084C31.4301 38.7856 31.6409 38.8701 31.7674 39.2502C34.424 44.867 37.1227 50.3993 39.6528 56.0584H39.7371C42.1829 50.4838 44.8816 44.867 47.4539 39.3347C47.6647 38.9968 47.7912 38.7856 48.2129 38.7856H55.0019C55.3392 38.7856 55.4658 39.039 55.2549 39.4191L44.1226 60.8306V60.8306Z" fill="black"/>
<path d="M260.584 43.9165H379.417L320.001 116.25L260.584 43.9165Z" stroke="black" stroke-width="4" stroke-linecap="round" stroke-linejoin="round"/>
<path d="M260.584 43.9168L283.834 10.3335L281.251 43.9168L320.001 116.25L358.751 43.9168L356.167 10.3335L379.417 43.9168" stroke="black" stroke-width="4" stroke-linecap="round" stroke-linejoin="round"/>
<path d="M283.834 10.3333L320.001 7.75L356.167 10.3333" stroke="black" stroke-width="4" stroke-linecap="round" stroke-linejoin="round"/>
<path d="M281.25 43.9167L320 7.75L358.75 43.9167" stroke="black" stroke-width="4" stroke-linecap="round" stroke-linejoin="round"/>
<path d="M579.165 61.6743C579.165 57.1337 580.992 52.7792 584.242 49.5685C587.493 46.3579 591.901 44.5542 596.498 44.5542C601.095 44.5542 605.504 46.3579 608.754 49.5685C612.005 52.7792 613.831 57.1337 613.831 61.6743C613.831 66.2148 612.005 70.5693 608.754 73.78C605.504 76.9906 601.095 78.7943 596.498 78.7943C591.901 78.7943 587.493 76.9906 584.242 73.78C580.992 70.5693 579.165 66.2148 579.165 61.6743ZM544.5 95.9144C544.5 91.3739 546.326 87.0194 549.577 83.8087C552.827 80.5981 557.236 78.7943 561.833 78.7943H579.165V95.9144C579.165 100.455 577.339 104.81 574.089 108.02C570.838 111.231 566.43 113.035 561.833 113.035C557.236 113.035 552.827 111.231 549.577 108.02C546.326 104.81 544.5 100.455 544.5 95.9144ZM579.165 10.314V44.5542H596.498C601.095 44.5542 605.504 42.7504 608.754 39.5398C612.005 36.3292 613.831 31.9746 613.831 27.4341C613.831 22.8935 612.005 18.539 608.754 15.3283C605.504 12.1177 601.095 10.314 596.498 10.314H579.165ZM544.5 27.4341C544.5 31.9746 546.326 36.3292 549.577 39.5398C552.827 42.7504 557.236 44.5542 561.833 44.5542H579.165V10.314H561.833C557.236 10.314 552.827 12.1177 549.577 15.3283C546.326 18.539 544.5 22.8935 544.5 27.4341V27.4341ZM544.5 61.6743C544.5 66.2148 546.326 70.5693 549.577 73.78C552.827 76.9906 557.236 78.7943 561.833 78.7943H579.165V44.5542H561.833C557.236 44.5542 552.827 46.3579 549.577 49.5685C546.326 52.7792 544.5 57.1337 544.5 61.6743V61.6743Z" fill="#F4003B" stroke="black" stroke-width="4"/>
<rect x="2.875" y="9" width="104.25" height="104.25" stroke="black" stroke-width="4" stroke-linecap="round" stroke-linejoin="round"/>
</svg>
