<svg width="1344" height="124" viewBox="0 0 1344 124" fill="none" xmlns="http://www.w3.org/2000/svg">
<path d="M947.75 55.5087H933.194L946.688 32.75H929.687L913.75 66.888H926.288L913.75 98.75L947.75 55.5087Z" fill="white"/>
<path d="M1192 55.5087H1177.44L1190.94 32.75H1173.94L1158 66.888H1170.54L1158 98.75L1192 55.5087Z" fill="white"/>
<path d="M782.5 79.25L813 109.75V79.25" stroke="black" stroke-width="4" stroke-linejoin="round"/>
<path d="M813 48.75H782.5V79.25H813" stroke="black" stroke-width="4" stroke-linejoin="round"/>
<path d="M813 48.75L843.5 79.25H813" stroke="black" stroke-width="4" stroke-linejoin="round"/>
<path d="M813 18.25H843.5V48.75H813" stroke="black" stroke-width="4" stroke-linejoin="round"/>
<path d="M813 18.25H782.5L813 48.75" stroke="black" stroke-width="4" stroke-linejoin="round"/>
<path d="M34 55.5087H19.4437L32.9376 32.75H15.9374L0 66.888H12.5376L0 98.75L34 55.5087Z" fill="white"/>
<path d="M1074.7 58.5638C1074.16 58.3133 1073.48 58.206 1072.62 58.206C1068.1 58.206 1065.08 61.6766 1065.08 67.4372C1065.08 74.0206 1068.17 76.6683 1072.19 76.6683C1073.05 76.6683 1073.98 76.561 1074.66 76.2748V58.5638H1074.7ZM1058.62 67.7234C1058.62 59.3867 1064.01 52.8748 1072.83 52.8748C1073.59 52.8748 1073.98 52.8748 1074.7 52.9463V43.6436C1074.7 43.4289 1074.88 43.2858 1075.06 43.2858H1080.84C1081.12 43.2858 1081.2 43.3931 1081.2 43.572V76.2748C1081.2 77.2408 1081.2 78.4573 1081.38 79.7812C1081.38 80.0317 1081.38 80.0674 1081.16 80.1748C1078.15 81.606 1074.99 82.25 1071.97 82.25C1064.19 82.25 1058.62 77.4555 1058.62 67.7234V67.7234ZM1046.39 61.9271L1056.43 81.3555C1056.61 81.6417 1056.51 81.928 1056.22 81.928H1049.98C1049.58 81.928 1049.4 81.8206 1049.22 81.4628C1046.93 76.7399 1044.59 71.8381 1042.19 66.7573H1042.12C1039.96 71.5518 1037.6 76.7757 1035.3 81.4986C1035.12 81.7849 1034.94 81.8922 1034.65 81.8922H1028.7C1028.34 81.8922 1028.3 81.606 1028.48 81.3913L1038.31 62.5353L1028.8 43.7867C1028.59 43.5005 1028.8 43.25 1029.05 43.25H1035.23C1035.59 43.25 1035.77 43.3216 1035.87 43.6436C1038.13 48.4023 1040.43 53.0895 1042.58 57.8839H1042.65C1044.74 53.161 1047.03 48.4023 1049.22 43.7151C1049.4 43.4289 1049.51 43.25 1049.87 43.25H1055.65C1055.93 43.25 1056.04 43.4647 1055.86 43.7867L1046.39 61.9271V61.9271Z" fill="black"/>
<rect x="1011.38" y="18.25" width="89" height="89" stroke="black" stroke-width="4" stroke-linecap="round" stroke-linejoin="round"/>
<g clip-path="url(#clip0)">
<path d="M1244.15 49.896H1340.94L1292.55 108.813L1244.15 49.896Z" stroke="black" stroke-width="4" stroke-linecap="round" stroke-linejoin="round"/>
<path d="M1244.15 49.8957L1263.09 22.5415L1260.98 49.8957L1292.55 108.812L1324.11 49.8957L1322 22.5415L1340.94 49.8957" stroke="black" stroke-width="4" stroke-linecap="round" stroke-linejoin="round"/>
<path d="M1263.09 22.5417L1292.55 20.4375L1322 22.5417" stroke="black" stroke-width="4" stroke-linecap="round" stroke-linejoin="round"/>
<path d="M1260.98 49.8958L1292.55 20.4375L1324.11 49.8958" stroke="black" stroke-width="4" stroke-linecap="round" stroke-linejoin="round"/>
</g>
<path d="M276 55.5087H261.444L274.938 32.75H257.937L242 66.888H254.538L242 98.75L276 55.5087Z" fill="white"/>
<path d="M498 55.3535H483.444L496.938 32.25H479.937L464 66.9052H476.538L464 99.25L498 55.3535Z" fill="white"/>
<path d="M715 55.3535H700.444L713.938 32.25H696.937L681 66.9052H693.538L681 99.25L715 55.3535Z" fill="white"/>
<path d="M167.325 57.3138C166.787 57.0633 166.105 56.956 165.244 56.956C160.723 56.956 157.708 60.4266 157.708 66.1872C157.708 72.7706 160.794 75.4183 164.813 75.4183C165.675 75.4183 166.608 75.311 167.289 75.0248V57.3138H167.325ZM151.249 66.4734C151.249 58.1367 156.632 51.6248 165.459 51.6248C166.213 51.6248 166.608 51.6248 167.325 51.6963V42.3936C167.325 42.1789 167.505 42.0358 167.684 42.0358H173.462C173.749 42.0358 173.821 42.1431 173.821 42.322V75.0248C173.821 75.9908 173.821 77.2073 174 78.5312C174 78.7817 174 78.8174 173.785 78.9248C170.77 80.356 167.612 81 164.598 81C156.811 81 151.249 76.2055 151.249 66.4734V66.4734ZM139.012 60.6771L149.06 80.1055C149.239 80.3917 149.132 80.678 148.845 80.678H142.601C142.206 80.678 142.026 80.5706 141.847 80.2128C139.55 75.4899 137.218 70.5881 134.813 65.5073H134.742C132.589 70.3018 130.22 75.5257 127.924 80.2486C127.744 80.5349 127.565 80.6422 127.278 80.6422H121.321C120.962 80.6422 120.926 80.356 121.105 80.1413L130.938 61.2853L121.428 42.5367C121.213 42.2505 121.428 42 121.68 42H127.852C128.211 42 128.39 42.0716 128.498 42.3936C130.758 47.1523 133.055 51.8395 135.208 56.6339H135.28C137.361 51.911 139.658 47.1523 141.847 42.4651C142.026 42.1789 142.134 42 142.493 42H148.27C148.557 42 148.665 42.2147 148.486 42.5367L139.012 60.6771V60.6771Z" fill="black"/>
<g clip-path="url(#clip1)">
<path d="M323.15 49.896H419.942L371.546 108.813L323.15 49.896Z" stroke="black" stroke-width="4" stroke-linecap="round" stroke-linejoin="round"/>
<path d="M323.15 49.8957L342.088 22.5415L339.984 49.8957L371.546 108.812L403.109 49.8957L401.005 22.5415L419.942 49.8957" stroke="black" stroke-width="4" stroke-linecap="round" stroke-linejoin="round"/>
<path d="M342.088 22.5417L371.546 20.4375L401.005 22.5417" stroke="black" stroke-width="4" stroke-linecap="round" stroke-linejoin="round"/>
<path d="M339.984 49.8958L371.547 20.4375L403.109 49.8958" stroke="black" stroke-width="4" stroke-linecap="round" stroke-linejoin="round"/>
</g>
<path d="M591.022 61.5757C591.022 57.6956 592.569 53.9745 595.321 51.2308C598.074 48.4872 601.808 46.9458 605.7 46.9458C609.593 46.9458 613.327 48.4872 616.079 51.2308C618.832 53.9745 620.379 57.6956 620.379 61.5757C620.379 65.4558 618.832 69.177 616.079 71.9206C613.327 74.6643 609.593 76.2056 605.7 76.2056C601.808 76.2056 598.074 74.6643 595.321 71.9206C592.569 69.177 591.022 65.4558 591.022 61.5757ZM561.666 90.8355C561.666 86.9555 563.212 83.2343 565.965 80.4906C568.718 77.747 572.451 76.2056 576.344 76.2056H591.022V90.8355C591.022 94.7156 589.476 98.4368 586.723 101.18C583.97 103.924 580.237 105.465 576.344 105.465C572.451 105.465 568.718 103.924 565.965 101.18C563.212 98.4368 561.666 94.7156 561.666 90.8355ZM591.022 17.686V46.9458H605.7C609.593 46.9458 613.327 45.4045 616.079 42.6608C618.832 39.9172 620.379 36.196 620.379 32.3159C620.379 28.4358 618.832 24.7147 616.079 21.971C613.327 19.2274 609.593 17.686 605.7 17.686H591.022ZM561.666 32.3159C561.666 36.196 563.212 39.9172 565.965 42.6608C568.718 45.4045 572.451 46.9458 576.344 46.9458H591.022V17.686H576.344C572.451 17.686 568.718 19.2274 565.965 21.971C563.212 24.7147 561.666 28.4358 561.666 32.3159V32.3159ZM561.666 61.5757C561.666 65.4558 563.212 69.177 565.965 71.9206C568.718 74.6643 572.451 76.2056 576.344 76.2056H591.022V46.9458H576.344C572.451 46.9458 568.718 48.4872 565.965 51.2308C563.212 53.9745 561.666 57.6956 561.666 61.5757V61.5757Z" stroke="black" stroke-width="4"/>
<rect x="104" y="17" width="89" height="89" stroke="black" stroke-width="4" stroke-linecap="round" stroke-linejoin="round"/>
<defs>
<clipPath id="clip0">
<rect width="101" height="101" fill="white" transform="translate(1243 14.125)"/>
</clipPath>
<clipPath id="clip1">
<rect width="101" height="101" fill="white" transform="translate(322 14.125)"/>
</clipPath>
</defs>
</svg>
