<svg width="30" height="30" viewBox="0 0 30 30" fill="none" xmlns="http://www.w3.org/2000/svg">
<path d="M21.25 3.75H8.75C7.375 3.75 6.25 4.875 6.25 6.25V26.25L15 22.5L23.75 26.25V6.25C23.75 4.875 22.625 3.75 21.25 3.75Z" fill="#F4003B"/>
<path d="M6.25 26.25H4.75V28.5248L6.84088 27.6287L6.25 26.25ZM15 22.5L15.5909 21.1213L15 20.868L14.4091 21.1213L15 22.5ZM23.75 26.25L23.1591 27.6287L25.25 28.5248V26.25H23.75ZM21.25 2.25H8.75V5.25H21.25V2.25ZM8.75 2.25C6.54657 2.25 4.75 4.04657 4.75 6.25H7.75C7.75 5.70343 8.20343 5.25 8.75 5.25V2.25ZM4.75 6.25V26.25H7.75V6.25H4.75ZM6.84088 27.6287L15.5909 23.8787L14.4091 21.1213L5.65912 24.8713L6.84088 27.6287ZM14.4091 23.8787L23.1591 27.6287L24.3409 24.8713L15.5909 21.1213L14.4091 23.8787ZM25.25 26.25V6.25H22.25V26.25H25.25ZM25.25 6.25C25.25 4.04657 23.4534 2.25 21.25 2.25V5.25C21.7966 5.25 22.25 5.70343 22.25 6.25H25.25Z" fill="black"/>
</svg>
