<svg width="31" height="30" viewBox="0 0 31 30" fill="none" xmlns="http://www.w3.org/2000/svg">
<path d="M21.75 3.75H9.25C7.875 3.75 6.75 4.875 6.75 6.25V26.25L15.5 22.5L24.25 26.25V6.25C24.25 4.875 23.125 3.75 21.75 3.75Z" fill="#F4003B"/>
<path d="M6.75 26.25H5.25C5.25 26.7542 5.50332 27.2247 5.92426 27.5023C6.3452 27.7798 6.87743 27.8273 7.34088 27.6287L6.75 26.25ZM15.5 22.5L16.0909 21.1213C15.7136 20.9596 15.2864 20.9596 14.9091 21.1213L15.5 22.5ZM24.25 26.25L23.6591 27.6287C24.1226 27.8273 24.6548 27.7798 25.0757 27.5023C25.4967 27.2247 25.75 26.7542 25.75 26.25H24.25ZM21.75 2.25H9.25V5.25H21.75V2.25ZM9.25 2.25C7.04657 2.25 5.25 4.04657 5.25 6.25H8.25C8.25 5.70343 8.70343 5.25 9.25 5.25V2.25ZM5.25 6.25V26.25H8.25V6.25H5.25ZM7.34088 27.6287L16.0909 23.8787L14.9091 21.1213L6.15912 24.8713L7.34088 27.6287ZM14.9091 23.8787L23.6591 27.6287L24.8409 24.8713L16.0909 21.1213L14.9091 23.8787ZM25.75 26.25V6.25H22.75V26.25H25.75ZM25.75 6.25C25.75 4.04657 23.9534 2.25 21.75 2.25V5.25C22.2966 5.25 22.75 5.70343 22.75 6.25H25.75Z" fill="black"/>
</svg>
